<!-- Generated by IcoMoon.io -->
<svg version="1.1" xmlns="http://www.w3.org/2000/svg" width="32" height="32" viewBox="0 0 32 32">
<title>arrow-right</title>
<path d="M15.057 7.609l7.057 7.057h-15.448c-0.736 0-1.333 0.597-1.333 1.333s0.597 1.333 1.333 1.333h15.448l-7.057 7.057c-0.521 0.521-0.521 1.365 0 1.885s1.365 0.521 1.885 0l9.333-9.333c0.123-0.123 0.221-0.269 0.289-0.432 0.135-0.327 0.135-0.695 0-1.021-0.065-0.157-0.161-0.304-0.289-0.432l-9.333-9.333c-0.521-0.521-1.365-0.521-1.885 0s-0.521 1.365 0 1.885z"></path>
</svg>
