<!-- Generated by IcoMoon.io -->
<svg version="1.1" xmlns="http://www.w3.org/2000/svg" width="32" height="32" viewBox="0 0 32 32">
<title>chevrons-left</title>
<path d="M15.609 21.724l-5.724-5.724 5.724-5.724c0.521-0.521 0.521-1.365 0-1.885s-1.365-0.521-1.885 0l-6.667 6.667c-0.521 0.521-0.521 1.365 0 1.885l6.667 6.667c0.521 0.521 1.365 0.521 1.885 0s0.521-1.365 0-1.885zM24.943 21.724l-5.724-5.724 5.724-5.724c0.521-0.521 0.521-1.365 0-1.885s-1.365-0.521-1.885 0l-6.667 6.667c-0.521 0.521-0.521 1.365 0 1.885l6.667 6.667c0.521 0.521 1.365 0.521 1.885 0s0.521-1.365 0-1.885z"></path>
</svg>
