<!-- Generated by IcoMoon.io -->
<svg version="1.1" xmlns="http://www.w3.org/2000/svg" width="32" height="32" viewBox="0 0 32 32">
<title>moon</title>
<path d="M29.328 17.176c0.029-0.311-0.051-0.635-0.251-0.908-0.433-0.595-1.268-0.725-1.863-0.292-1.267 0.924-2.745 1.448-4.251 1.549-1.824 0.123-3.688-0.377-5.267-1.544-1.777-1.313-2.852-3.22-3.156-5.247s0.165-4.165 1.479-5.941c0.189-0.255 0.288-0.58 0.255-0.921-0.071-0.733-0.723-1.269-1.456-1.197-3.011 0.293-5.752 1.573-7.86 3.535-2.315 2.153-3.869 5.129-4.183 8.515-0.339 3.665 0.841 7.124 3.021 9.748s5.363 4.417 9.029 4.756 7.124-0.841 9.748-3.021 4.417-5.363 4.756-9.029zM26.089 19.565c-0.653 1.817-1.78 3.391-3.221 4.588-2.101 1.745-4.864 2.688-7.797 2.417s-5.477-1.704-7.223-3.805-2.688-4.864-2.417-7.797c0.249-2.709 1.489-5.085 3.343-6.808 1.043-0.971 2.28-1.733 3.641-2.229-0.608 1.685-0.769 3.475-0.512 5.199 0.404 2.697 1.84 5.245 4.208 6.996 2.105 1.556 4.597 2.224 7.031 2.060 1.003-0.067 1.995-0.276 2.947-0.62z"></path>
</svg>
