<!-- Generated by IcoMoon.io -->
<svg version="1.1" xmlns="http://www.w3.org/2000/svg" width="32" height="32" viewBox="0 0 32 32">
<title>search</title>
<path d="M21.388 21.141c-0.045 0.035-0.089 0.073-0.132 0.116s-0.080 0.085-0.116 0.132c-1.677 1.617-3.959 2.611-6.473 2.611-2.577 0-4.909-1.043-6.6-2.733s-2.733-4.023-2.733-6.6 1.043-4.909 2.733-6.6 4.023-2.733 6.6-2.733 4.909 1.043 6.6 2.733 2.733 4.023 2.733 6.6c0 2.515-0.993 4.796-2.612 6.475zM28.943 27.057l-4.9-4.9c1.641-2.053 2.624-4.657 2.624-7.491 0-3.313-1.344-6.315-3.515-8.485s-5.172-3.515-8.485-3.515-6.315 1.344-8.485 3.515-3.515 5.172-3.515 8.485 1.344 6.315 3.515 8.485 5.172 3.515 8.485 3.515c2.833 0 5.437-0.983 7.491-2.624l4.9 4.9c0.521 0.521 1.365 0.521 1.885 0s0.521-1.365 0-1.885z"></path>
</svg>
