<!-- Generated by IcoMoon.io -->
<svg version="1.1" xmlns="http://www.w3.org/2000/svg" width="32" height="32" viewBox="0 0 32 32">
<title>sun</title>
<path d="M24 16c0-2.209-0.897-4.211-2.343-5.657s-3.448-2.343-5.657-2.343-4.211 0.897-5.657 2.343-2.343 3.448-2.343 5.657 0.897 4.211 2.343 5.657 3.448 2.343 5.657 2.343 4.211-0.897 5.657-2.343 2.343-3.448 2.343-5.657zM21.333 16c0 1.473-0.596 2.804-1.563 3.771s-2.297 1.563-3.771 1.563-2.804-0.596-3.771-1.563-1.563-2.297-1.563-3.771 0.596-2.804 1.563-3.771 2.297-1.563 3.771-1.563 2.804 0.596 3.771 1.563 1.563 2.297 1.563 3.771zM14.667 1.333v2.667c0 0.736 0.597 1.333 1.333 1.333s1.333-0.597 1.333-1.333v-2.667c0-0.736-0.597-1.333-1.333-1.333s-1.333 0.597-1.333 1.333zM14.667 28v2.667c0 0.736 0.597 1.333 1.333 1.333s1.333-0.597 1.333-1.333v-2.667c0-0.736-0.597-1.333-1.333-1.333s-1.333 0.597-1.333 1.333zM4.684 6.569l1.893 1.893c0.521 0.521 1.365 0.521 1.885 0s0.521-1.365 0-1.885l-1.893-1.893c-0.521-0.521-1.365-0.521-1.885 0s-0.521 1.365 0 1.885zM23.537 25.423l1.893 1.893c0.521 0.521 1.365 0.521 1.885 0s0.521-1.365 0-1.885l-1.893-1.893c-0.521-0.521-1.365-0.521-1.885 0s-0.521 1.365 0 1.885zM1.333 17.333h2.667c0.736 0 1.333-0.597 1.333-1.333s-0.597-1.333-1.333-1.333h-2.667c-0.736 0-1.333 0.597-1.333 1.333s0.597 1.333 1.333 1.333zM28 17.333h2.667c0.736 0 1.333-0.597 1.333-1.333s-0.597-1.333-1.333-1.333h-2.667c-0.736 0-1.333 0.597-1.333 1.333s0.597 1.333 1.333 1.333zM6.569 27.316l1.893-1.893c0.521-0.521 0.521-1.365 0-1.885s-1.365-0.521-1.885 0l-1.893 1.893c-0.521 0.521-0.521 1.365 0 1.885s1.365 0.521 1.885 0zM25.423 8.463l1.893-1.893c0.521-0.521 0.521-1.365 0-1.885s-1.365-0.521-1.885 0l-1.893 1.893c-0.521 0.521-0.521 1.365 0 1.885s1.365 0.521 1.885 0z"></path>
</svg>
