<!-- Generated by IcoMoon.io -->
<svg version="1.1" xmlns="http://www.w3.org/2000/svg" width="32" height="32" viewBox="0 0 32 32">
<title>layout</title>
<path d="M6.667 2.667c-1.104 0-2.107 0.449-2.828 1.172s-1.172 1.724-1.172 2.828v18.667c0 1.104 0.449 2.107 1.172 2.828s1.724 1.172 2.828 1.172h18.667c1.104 0 2.107-0.449 2.828-1.172s1.172-1.724 1.172-2.828v-18.667c0-1.104-0.449-2.107-1.172-2.828s-1.724-1.172-2.828-1.172zM26.667 10.667h-21.333v-4c0-0.368 0.148-0.7 0.391-0.943s0.575-0.391 0.943-0.391h18.667c0.368 0 0.7 0.148 0.943 0.391s0.391 0.575 0.391 0.943zM10.667 13.333v13.333h-4c-0.368 0-0.7-0.148-0.943-0.391s-0.391-0.575-0.391-0.943v-12zM13.333 26.667v-13.333h13.333v12c0 0.368-0.148 0.7-0.391 0.943s-0.575 0.391-0.943 0.391z"></path>
</svg>
