<!-- Generated by IcoMoon.io -->
<svg version="1.1" xmlns="http://www.w3.org/2000/svg" width="32" height="32" viewBox="0 0 32 32">
<title>link</title>
<path d="M20 10.667h4c1.473 0 2.804 0.596 3.771 1.563s1.563 2.297 1.563 3.771-0.596 2.804-1.563 3.771-2.297 1.563-3.771 1.563h-4c-0.736 0-1.333 0.597-1.333 1.333s0.597 1.333 1.333 1.333h4c2.209 0 4.211-0.897 5.657-2.343s2.343-3.448 2.343-5.657-0.897-4.211-2.343-5.657-3.448-2.343-5.657-2.343h-4c-0.736 0-1.333 0.597-1.333 1.333s0.597 1.333 1.333 1.333zM12 21.333h-4c-1.473 0-2.804-0.596-3.771-1.563s-1.563-2.297-1.563-3.771 0.596-2.804 1.563-3.771 2.297-1.563 3.771-1.563h4c0.736 0 1.333-0.597 1.333-1.333s-0.597-1.333-1.333-1.333h-4c-2.209 0-4.211 0.897-5.657 2.343s-2.343 3.448-2.343 5.657 0.897 4.211 2.343 5.657 3.448 2.343 5.657 2.343h4c0.736 0 1.333-0.597 1.333-1.333s-0.597-1.333-1.333-1.333zM10.667 17.333h10.667c0.736 0 1.333-0.597 1.333-1.333s-0.597-1.333-1.333-1.333h-10.667c-0.736 0-1.333 0.597-1.333 1.333s0.597 1.333 1.333 1.333z"></path>
</svg>
